# xmcd
#
# Track frame offsets:
#	150
#	18613
#	37593
#	58675
#	107017
#	127870
#	144626
#	180502
#	209149
#	225862
#	244246
#	258113
#	278686
#
# Disc length: 3911 seconds
#
# Revision: 1
# Processed by: cddbd v1.5.2PL0 Copyright (c) Steve Scherf et al.
# Submitted via: audiograbber 1.83.01
#
DISCID=aa0f450d
DTITLE=Phil Pritchett - Bootleg: October Stages 2001
DYEAR=2001
DGENRE=Country
TTITLE0=Empty Rooms
TTITLE1=Something About Red
TTITLE2=The Way To Santa Fe
TTITLE3=Snuff Machine - Fraternity Of Morality
TTITLE4=Feeling Port Aransas
TTITLE5=(What's So Funny 'Bout) Peace, Love And Understanding
TTITLE6=Alive On 35
TTITLE7=Woman To Me
TTITLE8=Talent Show
TTITLE9=Dishwater Hands
TTITLE10=Time Equals Distance
TTITLE11=Luke Skywalker And Indiana Jones
TTITLE12=Roxanne-Stairway
EXTD=
EXTT0=
EXTT1=
EXTT2=
EXTT3=
EXTT4=
EXTT5=
EXTT6=
EXTT7=
EXTT8=
EXTT9=
EXTT10=
EXTT11=
EXTT12=
PLAYORDER=
